<svg width="24" height="24" viewBox="0 0 24 24" fill="none" xmlns="http://www.w3.org/2000/svg">
<path d="M6.86603 18.8508C6.78823 19.2942 7.2258 19.6413 7.61224 19.4427L12.0015 17.1868L16.3907 19.4427C16.7771 19.6413 17.2147 19.2942 17.1369 18.8508L16.3072 14.1213L19.8295 10.7646C20.1587 10.4509 19.9883 9.87737 19.5473 9.81472L14.6488 9.11885L12.4647 4.7923C12.2679 4.40257 11.735 4.40257 11.5382 4.7923L9.35411 9.11885L4.45564 9.81472C4.01465 9.87737 3.84425 10.4509 4.17343 10.7646L7.69576 14.1213L6.86603 18.8508ZM11.7706 16.0826L8.08488 17.977L8.77914 14.0197C8.81187 13.8332 8.75033 13.6421 8.61639 13.5145L5.70955 10.7444L9.76186 10.1687C9.92938 10.1449 10.0756 10.0379 10.1547 9.88141L12.0015 6.22308L13.8483 9.88141C13.9273 10.0379 14.0736 10.1449 14.2411 10.1687L18.2934 10.7444L15.3865 13.5145C15.2526 13.6421 15.1911 13.8332 15.2238 14.0197L15.918 17.977L12.2323 16.0826C12.0867 16.0078 11.9162 16.0078 11.7706 16.0826Z" fill="#6D6D6D"/>
</svg>
